<svg width="17" height="17" viewBox="0 0 17 17" fill="none" xmlns="http://www.w3.org/2000/svg">
<path d="M5.6305 2.85742L6.38141 3.50271L6.0848 4.44408C5.9922 4.75433 6.09621 5.09363 6.34316 5.28913C6.46999 5.389 6.62097 5.44142 6.77867 5.44142C6.92295 5.44142 7.06253 5.39679 7.18332 5.31179L8.05904 4.69271L8.95154 5.30683C9.2099 5.48392 9.54743 5.46904 9.7917 5.27142C10.036 5.07238 10.1353 4.73096 10.036 4.41646L9.73063 3.49846L10.4782 2.85529C10.711 2.64846 10.7976 2.30704 10.6929 2.00529C10.5882 1.70354 10.3144 1.50096 10.0098 1.50096H9.07166L8.73412 0.500792C8.62943 0.201167 8.35565 0 8.053 0C7.75036 0 7.47657 0.201167 7.36987 0.504333L7.03367 1.50025H6.09554C5.79155 1.50025 5.51776 1.70213 5.41308 2.00175C5.30772 2.30208 5.39295 2.64492 5.6305 2.85742ZM6.09554 2.20858H7.26988C7.41147 2.20858 7.5383 2.11438 7.58595 1.97342L8.002 0.742333H8.10266L8.51871 1.97342C8.56635 2.11438 8.69318 2.20858 8.83478 2.20858H10.0091L10.0494 2.30917L9.12333 3.10604C9.01395 3.20025 8.97167 3.35679 9.01864 3.49775L9.40182 4.65092L9.31659 4.71325L8.23888 3.97233C8.12614 3.89442 7.9812 3.89654 7.86913 3.97446L6.80954 4.72317C6.79746 4.73167 6.78605 4.73308 6.778 4.73308L6.72297 4.66154L7.09138 3.4935C7.135 3.35396 7.09272 3.19954 6.98468 3.10746L6.05393 2.30846L6.09554 2.20858ZM16.0613 4.05308C15.9567 3.75133 15.6829 3.54875 15.3782 3.54875H14.4401L14.1025 2.54858C13.9979 2.24896 13.7241 2.04779 13.4214 2.04779C13.1188 2.04779 12.845 2.24896 12.7383 2.55212L12.4021 3.54804H11.464C11.16 3.54804 10.8855 3.75063 10.7822 4.04954C10.6768 4.35058 10.7614 4.692 10.9989 4.9045L11.7498 5.54979L11.4532 6.49117C11.3606 6.80142 11.4646 7.14071 11.7109 7.3355C11.8371 7.43608 11.9881 7.4885 12.1471 7.4885C12.2914 7.4885 12.4309 7.44388 12.5517 7.35888L13.4275 6.73979L14.32 7.35392C14.5776 7.531 14.9159 7.51613 15.1601 7.3185C15.4044 7.11946 15.5037 6.77804 15.4044 6.46354L15.0991 5.54554L15.8466 4.90238C16.0795 4.69554 16.166 4.35483 16.0613 4.05308ZM14.4924 5.15383C14.383 5.24804 14.3408 5.40458 14.3877 5.54554L14.7709 6.69871L14.6857 6.76104L13.608 6.02012C13.4952 5.94292 13.3496 5.94433 13.2382 6.02225L12.1786 6.77096C12.1666 6.77946 12.1551 6.78088 12.1471 6.78088L12.0921 6.70933L12.4605 5.54129C12.5041 5.40175 12.4618 5.24733 12.3538 5.15525L11.423 4.35625L11.4646 4.25708H12.639C12.7806 4.25708 12.9074 4.16288 12.955 4.02192L13.3711 2.79083H13.4718L13.8878 4.02192C13.9354 4.16288 14.0623 4.25708 14.2039 4.25708H15.3782L15.4185 4.35767L14.4924 5.15383ZM3.58245 7.35463C3.8408 7.53171 4.17834 7.51683 4.42261 7.31921C4.66687 7.12017 4.76618 6.77875 4.66687 6.46425L4.36154 5.54625L5.10909 4.90308C5.34195 4.69625 5.42851 4.35483 5.32383 4.05308C5.21914 3.75133 4.94536 3.54875 4.6407 3.54875H3.70257L3.36503 2.54858C3.26034 2.24896 2.98655 2.04779 2.68391 2.04779C2.38126 2.04779 2.10747 2.24896 2.00078 2.55212L1.66458 3.54804H0.726447C0.42246 3.54804 0.147999 3.75063 0.0446574 4.04954C-0.0606979 4.35058 0.0238547 4.692 0.261407 4.9045L1.01232 5.54979L0.71571 6.49117C0.623105 6.80142 0.727118 7.14071 0.973394 7.3355C1.09955 7.43608 1.25054 7.4885 1.40958 7.4885C1.55385 7.4885 1.69343 7.44388 1.81422 7.35888L2.68995 6.73979L3.58245 7.35392V7.35463ZM2.50071 6.02225L1.44112 6.77096C1.42904 6.77946 1.41763 6.78088 1.40958 6.78088L1.35455 6.70933L1.72296 5.54129C1.76658 5.40175 1.7243 5.24733 1.61626 5.15525L0.685513 4.35625L0.727118 4.25708H1.90146C2.04305 4.25708 2.16988 4.16288 2.21753 4.02192L2.63358 2.79083H2.73424L3.15029 4.02192C3.19793 4.16288 3.32476 4.25708 3.46636 4.25708H4.6407L4.68096 4.35767L3.75491 5.15454C3.64553 5.24875 3.60325 5.40529 3.65022 5.54625L4.03339 6.69942L3.94817 6.76175L2.87046 6.02083C2.75839 5.94363 2.61278 5.94504 2.50071 6.02296V6.02225ZM11.4076 9.91667H8.60058L8.99449 7.55792C9.00478 7.31803 9.00478 7.19218 8.99449 7.18038C8.91329 6.86588 8.72472 6.61796 8.46368 6.48267C8.19929 6.34667 7.89463 6.341 7.60407 6.4685C7.43362 6.54288 7.2672 6.72846 7.14842 6.97283L5.67479 9.91596H4.69774C3.58782 9.91596 2.68458 10.8694 2.68458 12.041V14.8743C2.68458 16.0459 3.58782 16.9993 4.69774 16.9993H10.3205C11.5955 16.9993 12.7027 16.0409 12.953 14.7213L13.3818 12.4575C13.5006 11.8306 13.3483 11.1881 12.9644 10.6937C12.5806 10.1993 12.0136 9.91596 11.4076 9.91596V9.91667ZM3.35563 14.875V12.0417C3.35563 11.2604 3.95757 10.625 4.69774 10.625H5.36879V16.2917H4.69774C3.95757 16.2917 3.35563 15.6563 3.35563 14.875ZM12.7235 12.3193L12.2947 14.5832C12.1068 15.5727 11.2767 16.2917 10.3205 16.2917H6.03984V10.511C6.13446 10.4465 6.21364 10.3565 6.268 10.2475L7.74432 7.30008C7.80739 7.16975 7.86645 7.12229 7.86309 7.12229C7.97247 7.07413 8.08051 7.07342 8.16842 7.11875C8.23553 7.15346 8.28854 7.21438 8.33417 7.32488L7.94093 9.79271C7.90604 9.99954 7.95905 10.2099 8.08722 10.3721C8.21539 10.5329 8.40262 10.625 8.60125 10.625H11.4083C11.8122 10.625 12.19 10.8141 12.4457 11.1435C12.7021 11.4729 12.8027 11.9014 12.7235 12.3193Z" fill="white"/>
</svg>
