<svg width="16" height="16" viewBox="0 0 16 16" fill="none" xmlns="http://www.w3.org/2000/svg">
<path d="M15.4782 11.3292L13.1925 9.23285C13.1898 9.09576 13.1839 8.9593 13.1515 8.82534C13.0722 8.49546 13.2321 8.14429 13.5487 7.95086C14.1368 7.59469 14.5306 6.93617 14.5194 6.26075C14.5207 5.92147 14.4328 5.58971 14.2643 5.30176C14.0859 4.99629 13.8447 4.74966 13.548 4.56813C13.2315 4.3747 13.0722 4.02353 13.1509 3.69427C13.2315 3.36126 13.2196 3.0176 13.1152 2.67395C12.9196 2.0292 12.3757 1.51465 11.6964 1.33062C11.3356 1.23234 10.9729 1.22107 10.6207 1.29619C10.2744 1.37193 9.90238 1.22045 9.6982 0.920606C9.50657 0.640172 9.24621 0.412319 8.92441 0.242682C8.30524 -0.082196 7.53674 -0.082196 6.91757 0.242682C6.5951 0.412319 6.33475 0.640798 6.14378 0.921232C5.93959 1.22107 5.56889 1.37256 5.22131 1.29681C4.86911 1.2217 4.50765 1.23296 4.14553 1.33124C3.46558 1.5159 2.92174 2.03045 2.72681 2.6752C2.62306 3.01823 2.61051 3.36126 2.69046 3.6949C2.76976 4.02416 2.61051 4.37533 2.29399 4.56875C1.70456 4.92556 1.3127 5.5822 1.32328 6.25887C1.3127 6.93867 1.70323 7.59344 2.29465 7.95149C2.61117 8.14491 2.77042 8.49608 2.69112 8.82534C2.65808 8.96431 2.65015 9.1064 2.64883 9.24787L0.379661 11.3292C0.0294391 11.6491 -0.0895041 12.1186 0.0690868 12.5542C0.227678 12.9899 0.626798 13.2904 1.11116 13.338L1.8605 13.4112L1.94905 14.0159C2.02306 14.588 2.57152 15.0331 3.17681 15.0268C3.49333 15.0268 3.80258 14.9104 4.03782 14.6932L6.77616 12.1793C7.09797 12.419 7.52286 12.5167 7.92264 12.5204C8.32573 12.5167 8.75458 12.4165 9.07771 12.173L11.8213 14.6919C12.0572 14.9104 12.3665 15.0268 12.6837 15.0268C13.2883 15.0325 13.8368 14.588 13.9108 14.0159L13.9993 13.4112L14.7487 13.338C15.233 13.2904 15.6321 12.9899 15.7907 12.5542C15.9493 12.1186 15.8304 11.6491 15.4802 11.3292H15.4782ZM3.57461 14.2444C3.41602 14.3915 3.19663 14.439 2.98584 14.3702C2.77571 14.3026 2.63165 14.1373 2.60125 13.9289L2.47703 13.0813C2.45588 12.9386 2.33495 12.8278 2.18363 12.8128L1.17658 12.7145C0.947945 12.692 0.766226 12.5561 0.691556 12.3495C0.616886 12.1436 0.670411 11.9308 0.836931 11.7787L2.7909 9.98652C3.01954 10.5612 3.51778 11.0175 4.14487 11.1877C4.50699 11.286 4.86977 11.2985 5.22065 11.2222C5.56823 11.1477 5.93893 11.2985 6.14312 11.5978C6.18277 11.6566 6.23827 11.7029 6.28387 11.7568L3.57461 14.2444ZM8.60326 11.7286C8.18828 11.947 7.65171 11.947 7.2374 11.7286C7.01074 11.6103 6.82969 11.4519 6.69819 11.2585C6.40612 10.8291 5.91052 10.5774 5.3984 10.5774C5.03695 10.5956 4.69465 10.7095 4.32593 10.5862C3.86998 10.4629 3.49135 10.1036 3.36051 9.67228C3.28782 9.43128 3.27857 9.19279 3.33342 8.96368C3.47351 8.3784 3.19928 7.76057 2.65082 7.42505C2.24641 7.17779 1.97416 6.73085 1.98209 6.25824C1.97416 5.78877 2.24773 5.33932 2.65082 5.09394C3.19994 4.75842 3.47417 4.14059 3.33342 3.55531C3.27857 3.3262 3.28782 3.08771 3.36051 2.84671C3.49135 2.41479 3.86998 2.05611 4.32593 1.93217C4.58034 1.86394 4.83144 1.85518 5.07329 1.90651C5.6918 2.03984 6.344 1.78006 6.69753 1.25988C6.82902 1.06646 7.01008 0.908087 7.23607 0.789779C7.65105 0.571316 8.18696 0.571942 8.60194 0.789779C8.82793 0.908713 9.00965 1.06708 9.14115 1.25988C9.49467 1.78006 10.1475 2.03796 10.7654 1.90651C11.0072 1.85455 11.259 1.86332 11.5127 1.93217C11.9687 2.05549 12.348 2.41479 12.4788 2.84609C12.5515 3.08708 12.5608 3.32558 12.5053 3.55468C12.3652 4.13996 12.6401 4.7578 13.1879 5.09332C13.5916 5.33932 13.8652 5.78877 13.8566 6.26012C13.8652 6.72897 13.5903 7.17967 13.1879 7.42442C12.6394 7.75932 12.3645 8.37778 12.5053 8.96306C12.5601 9.19216 12.5515 9.43065 12.4782 9.67103C12.3473 10.1029 11.968 10.4623 11.5121 10.5856C11.2583 10.6544 11.0066 10.6626 10.7647 10.6112C10.1469 10.4798 9.49401 10.7383 9.14049 11.2579C9.00833 11.4513 8.82727 11.6097 8.60128 11.728L8.60326 11.7286ZM15.1636 12.3495C15.0883 12.5561 14.9072 12.692 14.6786 12.7145L13.6716 12.8128C13.5202 12.8278 13.3993 12.9386 13.3782 13.0813L13.2539 13.9289C13.2235 14.1373 13.0795 14.3019 12.8694 14.3702C12.6612 14.4384 12.4398 14.3908 12.2799 14.2431L9.5634 11.7492C9.60701 11.6979 9.65987 11.6535 9.69754 11.5978C9.90238 11.2985 10.2744 11.1477 10.62 11.2222C10.9716 11.2973 11.333 11.2867 11.6958 11.1877C12.3262 11.0169 12.8271 10.5561 13.0544 9.9765L15.0189 11.7787C15.1848 11.9301 15.239 12.1442 15.1636 12.3495ZM10.8526 7.29234L11.2167 5.7318C11.2352 5.67985 11.3859 5.21601 11.0879 4.82415C10.8638 4.52994 10.468 4.38096 9.9123 4.38096H8.58476L8.90458 3.44827C8.92837 3.31807 8.92705 3.20477 8.90062 3.11275C8.76317 2.63639 8.25106 2.38663 7.76009 2.5788C7.60678 2.63952 7.4733 2.7572 7.33519 2.92621L6.08827 4.38096H5.94818C5.21933 4.38096 4.62659 4.94246 4.62659 5.6329V7.51081C4.62659 8.20125 5.21933 8.76275 5.94818 8.76275H8.91846C9.85481 8.76275 10.6504 8.15806 10.8539 7.29234H10.8526ZM5.28673 7.51081V5.6329C5.28673 5.28799 5.58343 5.00693 5.94752 5.00693V8.13678C5.58343 8.13678 5.28673 7.85572 5.28673 7.51081ZM8.9178 8.13678H6.60832V4.76719C6.60832 4.76719 7.94313 3.1791 7.94775 3.17472C8.08189 3.02637 8.31978 3.1478 8.24775 3.3381L7.81625 4.59755C7.78321 4.6927 7.80039 4.79723 7.86251 4.87861C7.92462 4.95998 8.0244 5.00818 8.13013 5.00818H9.91296C10.2328 5.00818 10.4594 5.07266 10.5506 5.18972C10.6557 5.3243 10.5903 5.5365 10.5817 5.56655L10.2083 7.15776C10.0729 7.73491 9.54225 8.13803 8.91846 8.13803L8.9178 8.13678Z" fill="white"/>
</svg>
